<?xml version="1.0" standalone="no"?>
<!DOCTYPE svg PUBLIC "-//W3C//DTD SVG 20010904//EN"
 "http://www.w3.org/TR/2001/REC-SVG-20010904/DTD/svg10.dtd">
<svg version="1.0" xmlns="http://www.w3.org/2000/svg"
 width="800.000000pt" height="800.000000pt" viewBox="0 0 800.000000 800.000000"
 preserveAspectRatio="xMidYMid meet">
<metadata>
Created by potrace 1.16, written by Peter Selinger 2001-2019
</metadata>
<g transform="translate(0.000000,800.000000) scale(0.100000,-0.100000)"
fill="#000000" stroke="none">
<path d="M3785 7913 c-311 -24 -496 -52 -726 -109 -1483 -364 -2630 -1583
-2908 -3089 -50 -269 -55 -343 -55 -715 0 -372 5 -446 55 -715 220 -1193 996
-2230 2079 -2776 416 -210 796 -326 1290 -396 180 -25 780 -25 960 0 771 108
1389 372 1985 846 154 123 453 422 576 576 422 531 690 1111 808 1750 50 270
55 343 55 715 0 372 -5 445 -55 715 -222 1204 -1004 2242 -2104 2794 -460 230
-946 362 -1480 401 -129 9 -384 11 -480 3z m635 -378 c597 -81 1066 -255 1540
-570 196 -131 341 -247 504 -405 554 -537 912 -1215 1035 -1960 40 -243 46
-313 46 -590 0 -277 -6 -347 -46 -590 -91 -547 -311 -1067 -644 -1516 -552
-744 -1364 -1244 -2265 -1393 -243 -40 -313 -46 -590 -46 -277 0 -347 6 -590
46 -547 91 -1067 312 -1516 644 -742 550 -1244 1367 -1393 2265 -40 243 -46
313 -46 590 0 277 6 347 46 590 98 589 353 1156 735 1635 113 141 398 426 539
539 215 172 528 365 760 469 393 176 728 261 1230 311 92 9 546 -4 655 -19z"/>
<path d="M4223 6381 c-101 -35 -166 -94 -214 -195 -51 -107 -47 -220 10 -330
25 -46 26 -54 14 -73 l-14 -21 -67 33 c-227 115 -483 78 -667 -96 l-73 -69
-53 11 c-77 17 -212 6 -297 -24 -170 -59 -321 -209 -371 -368 -10 -31 -19 -39
-59 -54 -240 -90 -408 -348 -388 -598 7 -88 46 -205 93 -281 l31 -49 -28 -41
c-65 -96 -92 -250 -66 -374 17 -83 71 -191 121 -244 19 -20 35 -39 35 -42 0
-2 -17 0 -37 6 -62 17 -168 3 -239 -32 -79 -39 -155 -120 -185 -198 -18 -47
-22 -76 -21 -162 4 -330 140 -640 386 -877 239 -231 559 -361 866 -351 95 3
112 6 172 35 121 60 195 170 205 306 5 70 -3 107 -42 202 -5 11 91 -78 214
-197 276 -271 383 -367 469 -422 145 -94 305 -159 485 -198 135 -29 417 -32
548 -5 503 102 905 452 1072 933 75 217 72 162 72 1279 0 951 -1 1003 -19
1055 -33 98 -79 173 -151 246 -105 106 -222 160 -369 173 l-68 6 -23 90 c-90
351 -333 650 -661 814 -225 113 -533 164 -681 112z m377 -311 c383 -109 668
-451 706 -847 10 -113 -8 -153 -71 -153 -58 0 -69 21 -79 145 -25 321 -257
608 -570 704 -39 12 -115 26 -170 33 -111 12 -146 30 -146 77 0 13 10 36 23
49 21 24 25 24 127 19 61 -3 136 -14 180 -27z m-137 -425 c222 -58 396 -269
397 -480 0 -68 -20 -95 -69 -95 -52 0 -69 23 -80 107 -11 91 -38 150 -98 214
-63 67 -145 108 -236 118 -55 6 -74 12 -88 30 -26 32 -24 67 6 96 29 30 81 33
168 10z m-635 -120 c40 -22 213 -191 710 -693 361 -365 658 -667 660 -671 1
-5 -26 -34 -60 -66 -185 -171 -398 -388 -435 -443 -87 -130 -141 -333 -129
-488 14 -188 91 -381 201 -502 49 -55 87 -70 120 -48 14 10 31 28 37 41 12 26
11 28 -79 158 -157 226 -176 455 -58 694 44 90 53 100 280 324 l234 232 3 391
c3 374 4 393 24 437 61 132 220 201 364 158 59 -18 130 -78 164 -139 l31 -55
0 -985 c0 -980 0 -985 -22 -1066 -112 -420 -407 -717 -820 -826 -77 -20 -110
-23 -268 -22 -161 0 -190 3 -278 27 -107 29 -255 94 -343 153 -53 35 -155 131
-534 499 -80 77 -390 376 -689 665 -394 379 -549 536 -562 565 -48 104 0 234
104 284 58 28 143 28 200 0 27 -14 171 -150 402 -380 309 -308 365 -359 390
-359 39 0 75 35 75 74 0 27 -68 98 -600 631 l-601 600 16 42 c24 62 112 139
183 159 67 20 151 15 213 -14 33 -14 176 -152 570 -546 295 -294 535 -527 545
-527 54 -4 94 29 94 75 0 27 -69 99 -601 632 l-601 601 25 50 c27 53 85 111
139 139 54 28 162 30 233 4 57 -22 86 -49 590 -551 480 -479 534 -529 563
-529 42 0 72 30 72 72 0 30 -46 79 -496 529 l-497 497 22 45 c29 60 84 114
145 144 44 21 62 24 131 20 65 -2 90 -9 133 -32z m-1660 -2263 c14 -14 21 -41
26 -107 8 -110 28 -189 71 -281 127 -276 388 -459 685 -480 66 -5 90 -11 108
-27 27 -25 29 -67 3 -98 -18 -22 -26 -24 -104 -22 -165 4 -364 72 -509 176
-73 52 -190 170 -237 240 -89 131 -153 315 -166 482 -6 73 -5 83 15 108 26 33
80 37 108 9z m447 -2 c11 -12 20 -45 25 -90 20 -178 153 -310 332 -329 78 -8
108 -30 108 -79 0 -43 -36 -72 -90 -72 -58 0 -146 23 -218 57 -80 37 -190 149
-230 233 -55 117 -70 242 -32 280 26 26 81 26 105 0z"/>
</g>
</svg>
